<svg width="24" height="24" viewBox="0 0 24 24" fill="none" xmlns="http://www.w3.org/2000/svg">
<path d="M19.2987 15.2422H5.96875V22.2422H19.2987V15.2422Z" fill="#22D081"/>
<path d="M15.8891 15.2422H12.7891V22.2422H15.8891V15.2422Z" fill="#D7FFEB"/>
<path d="M19.3008 22.2422H23.9508V15.2422H19.3008V22.2422Z" fill="#00713E"/>
<path opacity="0.3" d="M14.2197 23.6822L17.3397 22.2422L16.9397 15.2422H15.1197L13.6797 22.5322L14.2197 23.6822Z" fill="#1F002A"/>
<path d="M18.0303 2.655L6.19031 2.625L4.27031 13.215L1.93031 12.625L0.320312 21.465L2.35031 23.685H14.2103L18.0203 2.645L18.0303 2.655Z" fill="#333A37"/>
<path d="M18.0275 2.65969L15.9875 0.429688L15.2175 2.61969H6.1875L12.1775 21.4597L14.2175 23.6797L18.0275 2.64969V2.65969Z" fill="#00713E"/>
<path d="M14.9675 19.5384L15.7275 15.3784L13.6875 13.1484L12.9375 17.3084L14.9775 19.5384H14.9675Z" fill="#00D178"/>
<path d="M12.1803 21.4597L15.9903 0.429688H4.14031L0.320312 21.4697H12.1703L12.1803 21.4597Z" fill="#D7FFEB"/>
<path d="M11.5528 19.605L14.6928 2.305C14.1628 2.305 13.8028 1.885 13.8928 1.375H5.90281C5.81281 1.895 5.30281 2.315 4.77281 2.315L1.63281 19.615C2.16281 19.615 2.52281 20.035 2.43281 20.545H10.4228C10.5128 20.025 11.0228 19.605 11.5528 19.605Z" fill="#22D081"/>
<path d="M12.9303 17.3006L13.6903 13.1406H1.83031L1.07031 17.3106H12.9203L12.9303 17.3006Z" fill="#D7FFEB"/>
<path d="M8.24869 10.4019C10.2487 10.4019 12.1587 8.84187 12.5087 6.91187C12.8587 4.98187 11.5187 3.42188 9.51869 3.42188C7.51869 3.42188 5.60869 4.98187 5.25869 6.91187C4.90869 8.84187 6.24869 10.4019 8.24869 10.4019Z" fill="white"/>
<path d="M9.8475 6.45156H10.7475L10.8575 5.87156H9.8875C9.8675 5.74156 9.8275 5.61156 9.7675 5.49156H10.9275L11.0475 4.85156H7.4775L7.3575 5.49156H8.6075C8.8775 5.50156 9.0975 5.64156 9.1975 5.87156H7.2975L7.1875 6.45156H9.2075C9.0675 6.84156 8.6775 7.12156 8.2775 7.12156C8.1775 7.12156 7.9975 7.07156 7.9875 7.07156H7.9575L7.4475 7.49156L9.1175 9.50156L9.6475 9.05156L8.5275 7.71156C9.1475 7.56156 9.6875 7.06156 9.8475 6.45156Z" fill="#22D081"/>
</svg>
