<svg width="18" height="18" viewBox="0 0 18 18" fill="none" xmlns="http://www.w3.org/2000/svg">
<path d="M9.44916 17.0002C13.7217 17.0002 17.1852 13.4185 17.1852 9.00024C17.1852 4.58197 13.7217 1.00024 9.44916 1.00024C5.17666 1.00024 1.7131 4.58197 1.7131 9.00024C1.7131 13.4185 5.17666 17.0002 9.44916 17.0002Z" fill="#DA6D00" stroke="#1F002A" stroke-width="0.0218519" stroke-linecap="round" stroke-linejoin="round"/>
<path d="M9.44916 17.0002C13.7217 17.0002 17.1852 13.4185 17.1852 9.00024C17.1852 4.58197 13.7217 1.00024 9.44916 1.00024C5.17666 1.00024 1.7131 4.58197 1.7131 9.00024C1.7131 13.4185 5.17666 17.0002 9.44916 17.0002Z" fill="#DA6D00" stroke="#1F002A" stroke-width="0.0218519" stroke-linecap="round" stroke-linejoin="round"/>
<path d="M11.5123 16.7107C11.233 16.7908 10.9483 16.8542 10.657 16.9012H8.23023C7.93936 16.8542 7.65467 16.7908 7.3754 16.7107H11.5123Z" fill="#8E4402"/>
<path d="M12.5408 16.334C12.39 16.4029 12.2368 16.4655 12.0809 16.5237H6.81225C6.65637 16.4655 6.50281 16.4025 6.35196 16.334H12.5408Z" fill="#8E4402"/>
<path d="M13.2686 15.957C13.1549 16.024 13.0396 16.0873 12.9228 16.1475H5.96691C5.85009 16.0873 5.73521 16.024 5.62149 15.957H13.2682H13.2686Z" fill="#8E4402"/>
<path d="M13.8462 15.5793C13.7549 15.6447 13.6629 15.7081 13.5685 15.769H5.32109C5.22671 15.7081 5.13426 15.6455 5.04337 15.5793H13.8466H13.8462Z" fill="#8E4402"/>
<path d="M14.3347 15.2012C14.2577 15.2665 14.1788 15.3299 14.0991 15.3917H4.79689C4.71683 15.3303 4.6383 15.2665 4.56094 15.2012H14.3347Z" fill="#8E4402"/>
<path d="M14.7448 14.8245C14.6783 14.8898 14.6106 14.9532 14.5422 15.0142H4.34371C4.27524 14.9528 4.20755 14.8898 4.14102 14.8245H14.7452H14.7448Z" fill="#8E4402"/>
<path d="M15.1091 14.4478C15.0519 14.5127 14.9931 14.5761 14.932 14.6382H3.95685C3.89573 14.5761 3.83694 14.5127 3.77969 14.4478H15.1091Z" fill="#8E4402"/>
<path d="M15.4294 14.0713C15.378 14.1355 15.3261 14.1988 15.2724 14.2618H3.61799C3.56422 14.1988 3.51201 14.1355 3.46133 14.0713H15.429H15.4294Z" fill="#8E4402"/>
<path d="M15.7094 13.6946C15.6653 13.7587 15.6197 13.8217 15.5721 13.8843H3.31817C3.2706 13.8213 3.22457 13.7587 3.18008 13.6946H15.7094Z" fill="#8E4402"/>
<path d="M15.9592 13.3149C15.9193 13.3791 15.8783 13.4425 15.8365 13.5054H3.05193C3.01015 13.4425 2.96992 13.3791 2.93008 13.3149H15.9592Z" fill="#8E4402"/>
<path d="M16.1782 12.9385C16.1434 13.0026 16.1078 13.0656 16.0711 13.1282H2.8173C2.78017 13.0652 2.74419 13.0026 2.70938 12.9385H16.1779H16.1782Z" fill="#8E4402"/>
<path d="M16.3744 12.5617C16.3442 12.6259 16.3128 12.6892 16.2792 12.7522H2.61307C2.58019 12.6892 2.54808 12.6259 2.51791 12.5617H16.3744Z" fill="#8E4402"/>
<path d="M16.5439 12.1837C16.5175 12.2478 16.4901 12.3108 16.4611 12.3734H2.48666V12.1837H16.5439Z" fill="#8E4402"/>
<path d="M16.692 11.8069C16.6688 11.8711 16.6452 11.9345 16.6197 11.9974H2.48666V11.8069H16.692Z" fill="#8E4402"/>
<path d="M16.8177 11.4303C16.7984 11.4945 16.7779 11.5578 16.7566 11.6208H2.48666V11.4303H16.8177Z" fill="#8E4402"/>
<path d="M16.9245 11.0536C16.9086 11.117 16.8912 11.1807 16.873 11.2433H2.48666V11.0536H16.9241H16.9245Z" fill="#8E4402"/>
<path d="M17.0107 10.6755C16.9983 10.7389 16.9844 10.8027 16.9689 10.866H2.48666V10.6755H17.0107Z" fill="#8E4402"/>
<path d="M17.0796 10.2989C17.0699 10.3623 17.0591 10.426 17.0475 10.4886H2.48666V10.2989H17.0796Z" fill="#8E4402"/>
<path d="M17.1302 9.92078C17.1237 9.98494 17.1159 10.0483 17.1066 10.1113H2.48666V9.92078H17.1302Z" fill="#8E4402"/>
<path d="M17.1635 9.54413C17.1596 9.60749 17.155 9.67126 17.1488 9.73383H2.48666V9.54413H17.1635Z" fill="#8E4402"/>
<path d="M17.1798 9.16742C17.1786 9.23078 17.1767 9.29455 17.1732 9.35791H2.48666V9.16742H17.1798Z" fill="#8E4402"/>
<path d="M17.1817 8.97906H2.48666V8.78937H17.179C17.1801 8.85233 17.1817 8.9157 17.1817 8.97906Z" fill="#8E4402"/>
<path d="M17.172 8.60181H2.48666V8.41132H17.1612C17.1658 8.47468 17.1697 8.53765 17.172 8.60181Z" fill="#8E4402"/>
<path d="M17.1457 8.2251H2.48666V8.03461H17.1252C17.1337 8.09757 17.1399 8.16174 17.1457 8.2251Z" fill="#8E4402"/>
<path d="M17.1012 7.84766H2.48666V7.65796H17.0726C17.0834 7.72093 17.0931 7.78429 17.1016 7.84766H17.1012Z" fill="#8E4402"/>
<path d="M17.0397 7.47065H2.48666V7.28015H17.0018C17.0157 7.34352 17.0289 7.40728 17.0397 7.47065Z" fill="#8E4402"/>
<path d="M16.9601 7.0943H2.48666V6.9046H16.9129C16.9303 6.96757 16.9457 7.03093 16.9604 7.0943H16.9601Z" fill="#8E4402"/>
<path d="M16.8614 6.71595H2.48666V6.52545H16.8042C16.8247 6.58842 16.8432 6.65178 16.8614 6.71595Z" fill="#8E4402"/>
<path d="M16.7434 6.33954H2.48666V6.14984H16.6758C16.699 6.21281 16.7214 6.27617 16.7431 6.33954H16.7434Z" fill="#8E4402"/>
<path d="M16.6042 5.96118H2.48666V5.77069H16.5253C16.5527 5.83366 16.5791 5.89702 16.6042 5.96118Z" fill="#8E4402"/>
<path d="M16.4429 5.58368H2.48666V5.50118C2.5033 5.46532 2.5207 5.42985 2.5385 5.39398H16.3524C16.3837 5.45695 16.4139 5.51952 16.4429 5.58368Z" fill="#8E4402"/>
<path d="M16.2575 5.20783H2.63126C2.66452 5.14367 2.69856 5.0803 2.73453 5.01733H16.155C16.1902 5.0803 16.2251 5.14367 16.2575 5.20783Z" fill="#8E4402"/>
<path d="M16.0496 4.83112H2.84219C2.8801 4.76696 2.91839 4.70359 2.95901 4.64062H15.9328C15.9726 4.70359 16.0117 4.76696 16.0496 4.83112Z" fill="#8E4402"/>
<path d="M15.8105 4.45337H3.07852C3.12146 4.38921 3.16517 4.32624 3.21003 4.26367H15.679C15.7246 4.32664 15.7684 4.38921 15.8105 4.45337Z" fill="#8E4402"/>
<path d="M15.5447 4.07648H3.35001C3.39797 4.01152 3.44748 3.94895 3.49815 3.88599H15.3958C15.4465 3.94895 15.4964 4.01152 15.5447 4.07648Z" fill="#8E4402"/>
<path d="M15.2398 3.69751H3.65274C3.70728 3.63335 3.76375 3.56998 3.821 3.50781H15.0719C15.1296 3.56998 15.1857 3.63335 15.2402 3.69751H15.2398Z" fill="#8E4402"/>
<path d="M14.8958 3.3216H3.99649C4.05954 3.25624 4.12414 3.19287 4.18951 3.1311H14.7028C14.7682 3.19248 14.8332 3.25624 14.8958 3.3216Z" fill="#8E4402"/>
<path d="M14.5005 2.94409H4.38907C4.46179 2.87873 4.53528 2.81577 4.61032 2.75439H14.2788C14.3539 2.81577 14.4278 2.87873 14.5001 2.94409H14.5005Z" fill="#8E4402"/>
<path d="M14.045 2.56842H4.84415C4.92963 2.50227 5.01627 2.4397 5.10408 2.37793H13.7847C13.8733 2.4393 13.9599 2.50307 14.0454 2.56842H14.045Z" fill="#8E4402"/>
<path d="M13.5068 2.19025H5.38126C5.48453 2.1233 5.58974 2.05993 5.6965 1.99976H13.1912C13.2983 2.05993 13.4035 2.1241 13.5068 2.19025Z" fill="#8E4402"/>
<path d="M12.8488 1.81274H6.04532C6.17761 1.74539 6.31221 1.68203 6.44837 1.62305H12.4454C12.5819 1.68203 12.7169 1.74539 12.8488 1.81274Z" fill="#8E4402"/>
<path d="M11.9723 1.43561H6.91837C7.12066 1.36348 7.32644 1.30011 7.5357 1.24512H11.3554C11.5646 1.30011 11.77 1.36348 11.9719 1.43561H11.9723Z" fill="#8E4402"/>
<path d="M10.3845 1.05966H8.50235C8.81024 1.02016 9.12472 1 9.44305 1C9.76139 1 10.0759 1.02016 10.3845 1.05966Z" fill="#8E4402"/>
<path d="M17.1848 8.98024V9.00024C17.1848 9.05584 17.1841 9.11184 17.1829 9.16664C17.1817 9.23024 17.1798 9.29424 17.1763 9.35784C17.1744 9.42024 17.1713 9.48264 17.1666 9.54424C17.1628 9.60784 17.1581 9.67184 17.1519 9.73464C17.1469 9.79704 17.1411 9.85944 17.1334 9.92104C17.1268 9.98544 17.1191 10.049 17.1098 10.1122C17.1021 10.1746 17.0932 10.237 17.0827 10.2986C17.073 10.3622 17.0622 10.4262 17.0506 10.489C17.0398 10.5514 17.0274 10.6138 17.0139 10.6754C17.0015 10.739 16.9876 10.803 16.9721 10.8666C16.9585 10.929 16.9431 10.9914 16.9272 11.053C16.9114 11.1166 16.894 11.1806 16.8758 11.2434C16.8584 11.3058 16.8398 11.3682 16.8205 11.4298C16.8011 11.4942 16.7806 11.5578 16.7593 11.621C16.7388 11.6834 16.7168 11.745 16.6944 11.8066C16.6712 11.871 16.6476 11.9346 16.622 11.9978C16.5984 12.0602 16.5725 12.1226 16.5462 12.1842C16.5199 12.2486 16.4925 12.3118 16.4634 12.3746C16.436 12.4378 16.407 12.4994 16.376 12.561C16.3459 12.6254 16.3145 12.689 16.2809 12.7522C16.2495 12.8154 16.2167 12.877 16.1822 12.9386C16.1474 13.003 16.1118 13.0662 16.0751 13.129C16.0383 13.1922 16.0012 13.2538 15.9629 13.3154C15.9231 13.3798 15.8821 13.4434 15.8403 13.5066C15.7993 13.5698 15.7568 13.6314 15.7127 13.693C15.6686 13.7574 15.6229 13.8206 15.5753 13.8834C15.5285 13.9466 15.481 14.009 15.4322 14.0698C15.3808 14.1342 15.3289 14.1978 15.2752 14.261C15.2226 14.3242 15.1688 14.3858 15.1127 14.4466C15.0555 14.5118 14.9967 14.5754 14.9356 14.6378C14.8752 14.7014 14.813 14.7638 14.7503 14.8242C14.6838 14.8898 14.6161 14.9534 14.5476 15.0146C14.4784 15.079 14.4072 15.1406 14.3353 15.201C14.2583 15.2666 14.1794 15.3302 14.0997 15.3922C14.0177 15.4566 13.9349 15.519 13.8502 15.5786C13.7589 15.6442 13.6669 15.7078 13.5725 15.769C13.4738 15.8334 13.3737 15.8958 13.2723 15.9554C13.1586 16.0226 13.0433 16.0862 12.9265 16.1466C12.8008 16.213 12.6732 16.2754 12.5436 16.333C12.3927 16.4022 12.2396 16.465 12.0837 16.5234C11.8984 16.593 11.7096 16.6554 11.5178 16.7098C11.2385 16.7902 10.9538 16.8538 10.6626 16.901C10.2672 16.9662 9.86227 16.9994 9.44916 16.9994C9.03605 16.9994 8.63107 16.9662 8.23576 16.901C7.94488 16.8538 7.6602 16.7902 7.38093 16.7098C7.18907 16.6554 7.00031 16.593 6.81503 16.5234C6.65915 16.465 6.50559 16.4018 6.35474 16.333C6.22439 16.2754 6.09674 16.213 5.97103 16.1466C5.85421 16.0862 5.73933 16.0226 5.62561 15.9554C5.52427 15.8958 5.42409 15.8338 5.32546 15.769C5.23108 15.7078 5.13863 15.645 5.04773 15.5786C4.96302 15.519 4.88025 15.4566 4.79824 15.3922C4.71818 15.3306 4.63965 15.2666 4.56229 15.201C4.49035 15.1406 4.41918 15.0782 4.34994 15.0146C4.28147 14.953 4.21378 14.8898 4.14725 14.8242C4.08421 14.7638 4.0227 14.7014 3.96198 14.6378C3.90086 14.5754 3.84207 14.5118 3.78482 14.4466C3.72912 14.3854 3.67497 14.3238 3.62236 14.261C3.5686 14.1978 3.51638 14.1342 3.46571 14.0698C3.4162 14.0086 3.36901 13.9462 3.32259 13.8834C3.27501 13.8202 3.22898 13.7574 3.1845 13.693C3.14079 13.6314 3.09863 13.5694 3.05686 13.5066C3.01508 13.4434 2.97485 13.3798 2.93501 13.3154C2.89633 13.2538 2.85881 13.1918 2.82284 13.129C2.78571 13.0658 2.74974 13.003 2.71492 12.9386C2.68088 12.877 2.64762 12.815 2.61629 12.7522C2.58341 12.689 2.55131 12.6254 2.52114 12.561C2.00398 11.4886 1.7131 10.279 1.7131 8.99984C1.7131 7.72064 1.99238 6.55864 2.49019 5.50224C2.50682 5.46624 2.52423 5.43064 2.54202 5.39464C2.57219 5.33224 2.60352 5.26984 2.63563 5.20824C2.66889 5.14384 2.70293 5.08024 2.73891 5.01704C2.77294 4.95464 2.80892 4.89304 2.84528 4.83144C2.88318 4.76704 2.92148 4.70344 2.96209 4.64024C3.00116 4.57704 3.04177 4.51464 3.08277 4.45384C3.12571 4.38944 3.16942 4.32624 3.21429 4.26344C3.25838 4.20024 3.30402 4.13784 3.3516 4.07704C3.39956 4.01184 3.44908 3.94904 3.49975 3.88584C3.55042 3.82264 3.60186 3.76024 3.65485 3.69944C3.70939 3.63504 3.76587 3.57144 3.82311 3.50904C3.88075 3.44584 3.93915 3.38344 3.99872 3.32264C4.06177 3.25704 4.12637 3.19344 4.19174 3.13144C4.25788 3.06704 4.32441 3.00544 4.39249 2.94504C4.46521 2.87944 4.5387 2.81624 4.61374 2.75464C4.69071 2.69024 4.76885 2.62784 4.84775 2.56824C4.93324 2.50184 5.01988 2.43904 5.10769 2.37704C5.19897 2.31264 5.2918 2.25024 5.38541 2.19144C5.48869 2.12424 5.5939 2.06064 5.70065 2.00024C5.81437 1.93464 5.92964 1.87224 6.04646 1.81384C6.17874 1.74624 6.31335 1.68264 6.4495 1.62344C6.60423 1.55584 6.76127 1.49424 6.92102 1.43704C7.12331 1.36464 7.32909 1.30104 7.53835 1.24584C7.85398 1.16304 8.17735 1.10064 8.50729 1.05944C8.81519 1.02024 9.12966 1.00024 9.448 1.00024C9.76634 1.00024 10.0808 1.02024 10.3895 1.05944C10.7194 1.10064 11.0428 1.16304 11.3584 1.24584C11.5677 1.30104 11.7731 1.36464 11.975 1.43704C12.1347 1.49344 12.2918 1.55584 12.4465 1.62344C12.583 1.68264 12.718 1.74624 12.8499 1.81384C12.9667 1.87224 13.0824 1.93464 13.195 2.00024C13.3021 2.06064 13.4073 2.12504 13.5106 2.19144C13.6042 2.25104 13.6966 2.31304 13.7879 2.37704C13.8765 2.43864 13.9631 2.50264 14.0486 2.56824C14.1275 2.62864 14.2057 2.69024 14.2823 2.75464C14.3573 2.81624 14.4312 2.87944 14.5035 2.94504C14.5716 3.00544 14.6381 3.06704 14.7043 3.13144C14.7696 3.19304 14.8346 3.25704 14.8973 3.32264C14.9568 3.38384 15.016 3.44624 15.0729 3.50904C15.1305 3.57144 15.1866 3.63504 15.2411 3.69944C15.2945 3.76064 15.3456 3.82304 15.3963 3.88584C15.4469 3.94864 15.4968 4.01184 15.5452 4.07704C15.592 4.13824 15.6376 4.20064 15.6817 4.26344C15.7274 4.32664 15.7711 4.38944 15.8132 4.45384C15.855 4.51504 15.8952 4.57744 15.9347 4.64024C15.9745 4.70344 16.0136 4.76704 16.0515 4.83144C16.0882 4.89304 16.1234 4.95504 16.1579 5.01704C16.1931 5.08024 16.2279 5.14384 16.2604 5.20824C16.2932 5.26984 16.3246 5.33224 16.354 5.39464C16.3853 5.45784 16.4155 5.52064 16.4445 5.58504C16.4735 5.64664 16.5002 5.70864 16.5265 5.77144C16.554 5.83464 16.5803 5.89824 16.6054 5.96264C16.6305 6.02424 16.6541 6.08664 16.6773 6.14904C16.7006 6.21224 16.723 6.27584 16.7446 6.33944C16.7659 6.40104 16.7864 6.46344 16.8058 6.52584C16.8263 6.58904 16.8448 6.65264 16.863 6.71704C16.8816 6.77864 16.8982 6.84104 16.9145 6.90344C16.9319 6.96664 16.9473 7.03024 16.962 7.09384C16.9775 7.15544 16.991 7.21784 17.0038 7.28024C17.0177 7.34384 17.0309 7.40784 17.0417 7.47144C17.0541 7.53304 17.0649 7.59544 17.0746 7.65784C17.0854 7.72104 17.0951 7.78464 17.1036 7.84824C17.1133 7.90984 17.121 7.97224 17.1272 8.03464C17.1357 8.09784 17.1419 8.16224 17.1477 8.22584C17.1535 8.28744 17.1585 8.34984 17.1632 8.41184C17.1678 8.47544 17.1717 8.53864 17.174 8.60304C17.1771 8.66464 17.179 8.72704 17.181 8.78944C17.1821 8.85264 17.1837 8.91624 17.1837 8.97984L17.1848 8.98024Z" stroke="#1F002A" stroke-width="0.0218519" stroke-linecap="round" stroke-linejoin="round"/>
<path d="M8.73606 17.0002C13.0086 17.0002 16.4721 13.4185 16.4721 9.00024C16.4721 4.58197 13.0086 1.00024 8.73606 1.00024C4.46355 1.00024 1 4.58197 1 9.00024C1 13.4185 4.46355 17.0002 8.73606 17.0002Z" fill="#FBD000" stroke="#1F002A" stroke-width="0.0218519" stroke-linecap="round" stroke-linejoin="round"/>
<path d="M16.4732 9.0013C16.4732 10.1677 16.2319 11.2761 15.7975 12.2753C14.4994 13.2957 12.8791 13.9009 11.123 13.9009C6.84998 13.9009 3.38693 10.3189 3.38693 5.90091C3.38693 4.73491 3.6283 3.62691 4.0619 2.62811C5.36079 1.60691 6.9811 1.00171 8.73719 1.00171C13.0102 1.00171 16.4732 4.58291 16.4732 9.00091V9.0013Z" fill="#FFF600"/>
<path d="M16.4701 9.00092C16.4701 9.23772 16.4601 9.47252 16.44 9.70492C13.0744 8.83812 10.5803 5.69172 10.5803 1.94253C10.5803 1.70573 10.5907 1.47093 10.6105 1.23853C13.9768 2.10533 16.4701 5.25172 16.4701 9.00092Z" fill="white"/>
<path d="M8.73569 15.2473C12.0717 15.2473 14.776 12.4507 14.776 9.00092C14.776 5.55112 12.0717 2.75452 8.73569 2.75452C5.39971 2.75452 2.69537 5.55112 2.69537 9.00092C2.69537 12.4507 5.39971 15.2473 8.73569 15.2473Z" fill="#FFEC00" stroke="#1F002A" stroke-width="0.0218519" stroke-linecap="round" stroke-linejoin="round"/>
<path d="M8.73699 14.7792C11.8235 14.7792 14.3255 12.1917 14.3255 8.99996C14.3255 5.8082 11.8235 3.22076 8.73699 3.22076C5.65054 3.22076 3.14847 5.8082 3.14847 8.99996C3.14847 12.1917 5.65054 14.7792 8.73699 14.7792Z" fill="#DA6D00" stroke="#1F002A" stroke-width="0.0218519" stroke-linecap="round" stroke-linejoin="round"/>
<path d="M14.3265 9.00071C14.3265 12.1443 11.899 14.7023 8.87649 14.7779C5.85402 14.7023 3.42606 12.1447 3.42606 9.00071C3.42606 5.85671 5.85402 3.29911 8.87649 3.22351C11.899 3.29911 14.3265 5.85671 14.3265 9.00071Z" fill="#FFB300" stroke="#1F002A" stroke-width="0.0218519" stroke-linecap="round" stroke-linejoin="round"/>
<path d="M8.73606 17.0002C13.0086 17.0002 16.4721 13.4185 16.4721 9.00024C16.4721 4.58197 13.0086 1.00024 8.73606 1.00024C4.46355 1.00024 1 4.58197 1 9.00024C1 13.4185 4.46355 17.0002 8.73606 17.0002Z" stroke="#1F002A" stroke-width="0.0218519" stroke-linecap="round" stroke-linejoin="round"/>
<path d="M12.7857 8.63232V7.85472H11.44V7.37712L10.0413 5.93073H6.21504V7.85472H4.86974V8.63232H6.21504V9.36912H4.86935V10.1467H6.21504V12.0707H7.89067V10.1467V9.36912V8.63232V7.85472V7.29553H9.76434V7.85472V8.63232V9.36912V10.1467V12.0707H11.44V10.1467H12.7853V9.36912H11.44V8.63232H12.7857Z" fill="#DA6D00" stroke="#1F002A" stroke-width="0.0207593" stroke-linecap="round" stroke-linejoin="round"/>
<path d="M12.5825 8.63202V7.85442H11.2365V7.37682L9.83817 5.93042H6.01192V7.85442H4.66662V8.63202H6.01192V9.36882H4.66623V10.1464H6.01192V12.0704H7.68755V10.1464V9.36882V8.63202V7.85442V7.29522H9.56083V7.85442V8.63202V9.36882V10.1464V12.0704H11.2365V10.1464H12.5821V9.36882H11.2365V8.63202H12.5825Z" fill="#FFEC00" stroke="#1F002A" stroke-width="0.0207593" stroke-linecap="round" stroke-linejoin="round"/>
<path d="M11.2367 8.63192V9.36872H12.582V10.1467H11.2367V11.2891C10.646 11.1275 10.084 10.8919 9.56106 10.5935V7.29552H7.68739V9.07392C6.91688 8.21072 6.33551 7.16392 6.01215 6.00433V5.93073H9.8384L11.2371 7.37712V7.85432H12.5828V8.63232H11.2371L11.2367 8.63192Z" fill="#FFF600"/>
<path d="M12.5825 8.63202V7.85442H11.2365V7.37682L9.83817 5.93042H6.01192V7.85442H4.66662V8.63202H6.01192V9.36882H4.66623V10.1464H6.01192V12.0704H7.68755V10.1464V9.36882V8.63202V7.85442V7.29522H9.56083V7.85442V8.63202V9.36882V10.1464V12.0704H11.2365V10.1464H12.5821V9.36882H11.2365V8.63202H12.5825Z" stroke="#1F002A" stroke-width="0.0207593" stroke-linecap="round" stroke-linejoin="round"/>
</svg>
