<svg width="24" height="25" viewBox="0 0 24 25" fill="none" xmlns="http://www.w3.org/2000/svg">
<path d="M21.9239 4.61028L21.9228 4.60498C21.9228 4.60498 21.9188 4.60139 21.9194 4.59905L21.5971 4.04425L21.5006 4.40419L8.0161 0.791325C7.86884 0.751871 7.71473 0.840841 7.67527 0.988085L2.53955 20.1532C2.50009 20.3005 2.58907 20.4546 2.73632 20.494L16.4756 24.1752C16.5387 24.1921 16.6028 24.1867 16.6579 24.1588C16.7312 24.1284 16.7916 24.0619 16.8141 23.9778L21.9505 4.81028C21.9693 4.74017 21.9581 4.66955 21.9269 4.60857L21.9239 4.61028Z" fill="#FC983D"/>
<path d="M21.412 3.87751L7.67505 0.197019C7.5266 0.157244 7.374 0.245337 7.33422 0.393779L2.1985 19.5589C2.15872 19.7074 2.24682 19.8599 2.39528 19.8997L16.1323 23.5802C16.2807 23.62 16.4333 23.5319 16.4731 23.3835L21.6088 4.21831C21.6486 4.06987 21.5605 3.91729 21.412 3.87751Z" fill="url(#paint0_linear_5803_48857)"/>
<path opacity="0.4" d="M15.9565 2.41584L5.11647 8.66985L7.33485 0.391442C7.37431 0.244198 7.5278 0.157565 7.67505 0.197019L15.9565 2.41584Z" fill="#F5FFFA" stroke="#26032C" stroke-width="0.0120988" stroke-linejoin="round"/>
<path d="M21.3745 4.01775C21.4446 4.03654 21.4874 4.11062 21.4686 4.18074L16.3328 23.3459C16.314 23.416 16.24 23.4588 16.1698 23.44L2.43285 19.7595C2.36273 19.7407 2.31995 19.6666 2.33874 19.5965L7.47447 0.431355C7.49326 0.361238 7.56735 0.318464 7.63747 0.337252L21.3768 4.01837M21.412 3.87752L7.67505 0.197019C7.52546 0.156939 7.37431 0.244198 7.33422 0.393779L2.1985 19.5589C2.15904 19.7062 2.24568 19.8596 2.39528 19.8997L16.1346 23.5808C16.2818 23.6203 16.4353 23.5337 16.4754 23.3841L21.6111 4.21894C21.6506 4.0717 21.564 3.91822 21.4144 3.87814L21.412 3.87752Z" fill="url(#paint1_linear_5803_48857)"/>
<path d="M10.4631 17.2778C13.4361 18.0743 16.492 16.3102 17.2886 13.3374C18.0852 10.3647 16.3209 7.30912 13.3479 6.51258C10.3749 5.71604 7.31906 7.48018 6.52246 10.4529C5.72585 13.4256 7.49015 16.4812 10.4631 17.2778Z" fill="#3C0050"/>
<path d="M15.9628 12.5971L16.1645 11.8445L14.8182 11.4838L14.9422 11.021L13.9172 9.2459L10.0885 8.2201L9.58937 10.0829L8.24302 9.72213L8.04135 10.4747L9.3877 10.8354L9.19667 11.5483L7.85032 11.1876L7.64865 11.9401L8.995 12.3009L8.49584 14.1636L10.1718 14.6127L11.4106 9.98965L13.2852 10.4919L12.0464 15.1149L13.7223 15.5639L14.2215 13.7012L15.5678 14.0619L15.7695 13.3093L14.4231 12.9486L14.6142 12.2357L15.9605 12.5965L15.9628 12.5971Z" fill="#FBD000"/>
<path d="M10.4479 17.3241C7.45137 16.5212 5.66669 13.4303 6.46962 10.434C7.27254 7.43771 10.3637 5.65318 13.3603 6.45604C16.3568 7.2589 18.1415 10.3498 17.3386 13.3461C16.5357 16.3424 13.4445 18.1269 10.4479 17.3241ZM13.3321 6.56122C10.3916 5.77339 7.35973 7.5237 6.57184 10.4639C5.78394 13.4041 7.5344 16.4357 10.4749 17.2236C13.4153 18.0114 16.4472 16.2611 17.2351 13.3209C18.023 10.3807 16.2726 7.34904 13.3321 6.56122Z" fill="#370244"/>
<path d="M16.6554 24.1571C16.6004 24.1849 16.5363 24.1903 16.4732 24.1734L2.71284 20.4866C2.59831 20.456 2.50457 20.3757 2.45528 20.2698L2.23047 19.7812L16.3274 23.5582L16.6554 24.1571Z" fill="#0F0015"/>
<defs>
<linearGradient id="paint0_linear_5803_48857" x1="17.013" y1="25.6223" x2="5.91374" y2="-4.21885" gradientUnits="userSpaceOnUse">
<stop stop-color="#AF0DD5"/>
<stop offset="0.98" stop-color="#EBB6FF"/>
</linearGradient>
<linearGradient id="paint1_linear_5803_48857" x1="4.76636" y1="9.97635" x2="19.0408" y2="13.8015" gradientUnits="userSpaceOnUse">
<stop stop-color="#EDA02C"/>
<stop offset="0.58" stop-color="#FDED79"/>
<stop offset="1" stop-color="#FDC539"/>
</linearGradient>
</defs>
</svg>
