<svg width="17" height="21" viewBox="0 0 17 21" fill="none" xmlns="http://www.w3.org/2000/svg">
<path d="M12.6196 2.80764L13.1758 4.02169C13.301 4.29699 13.5007 4.52839 13.7557 4.69765L14.6488 5.28482C14.8449 5.41502 14.9668 5.63156 14.9706 5.86009L14.9957 7.64002C14.9968 7.88945 15.0515 8.13485 15.1565 8.35991L15.7795 9.72009C15.8832 9.9556 15.8935 10.2168 15.8006 10.4546L15.1764 12.0805C15.0978 12.2883 15.0545 12.511 15.0588 12.7343L15.0787 14.5136C15.0838 14.7741 14.974 15.0205 14.7876 15.1991L13.8211 16.1146C13.623 16.3024 13.4739 16.5227 13.3791 16.7763L12.7542 18.4073C12.6834 18.5949 12.5139 18.7226 12.3141 18.751L11.4192 18.8691C11.0255 18.9214 10.6596 19.0939 10.3774 19.3615L9.54317 20.15C9.36916 20.3143 9.10671 20.3351 8.90075 20.1983L7.99259 19.604C7.7716 19.4602 7.50375 19.3954 7.2446 19.4325L6.18251 19.5724C5.97231 19.5996 5.75791 19.4884 5.67067 19.292L5.06008 17.9599C4.93875 17.6957 4.74894 17.4708 4.49788 17.3126L3.48706 16.6473C3.35433 16.5621 3.27176 16.414 3.26949 16.2599L3.24136 14.2887C3.24029 14.0817 3.19091 13.8794 3.10303 13.6882L2.37505 12.103C2.31603 11.979 2.31706 11.8413 2.35924 11.7138L3.06985 9.85996C3.13872 9.68809 3.16707 9.50063 3.16866 9.31519L3.141 7.25384C3.13946 7.13696 3.19081 7.02128 3.27488 6.94145L4.45124 5.82904C4.61351 5.67396 4.7372 5.48762 4.81579 5.27982L5.48807 3.52199C5.54328 3.37496 5.67823 3.26956 5.84012 3.24703L7.0641 3.08459C7.28539 3.05346 7.49349 2.95705 7.65512 2.8072L8.68681 1.83612C8.85431 1.68168 9.11153 1.66027 9.3031 1.7846L10.2257 2.39131C10.4466 2.53517 10.7197 2.60056 10.9789 2.56348L11.9117 2.43949C12.2087 2.39645 12.4872 2.54738 12.6039 2.80572L12.6196 2.80764Z" fill="#5F1690" stroke="black" stroke-width="0.0828168" stroke-linecap="round" stroke-linejoin="round"/>
<path d="M11.7926 2.73538L12.3487 3.94942C12.474 4.22472 12.6736 4.45612 12.9286 4.62538L13.8218 5.21255C14.0179 5.34275 14.1398 5.55929 14.1435 5.78782L14.1687 7.56775C14.1698 7.81718 14.2245 8.06258 14.3294 8.28765L14.9525 9.64782C15.0561 9.88333 15.0665 10.1445 14.9736 10.3824L14.3493 12.0082C14.2707 12.216 14.2274 12.4387 14.2318 12.662L14.2517 14.4413C14.2568 14.7019 14.147 14.9482 13.9606 15.1269L12.9941 16.0423C12.796 16.2301 12.6469 16.4505 12.552 16.704L11.9272 18.3351C11.8564 18.5226 11.6869 18.6503 11.4871 18.6788L10.5921 18.7968C10.1985 18.8492 9.83255 19.0216 9.55035 19.2893L8.71615 20.0778C8.54214 20.242 8.27969 20.2628 8.07373 20.1261L7.16556 19.5318C6.94457 19.3879 6.67672 19.3231 6.41757 19.3602L5.35548 19.5001C5.14528 19.5273 4.93089 19.4161 4.84365 19.2197L4.23305 17.8876C4.11172 17.6234 3.92191 17.3985 3.67085 17.2404L2.66003 16.5751C2.52731 16.4898 2.44473 16.3417 2.44247 16.1876L2.41433 14.2164C2.41326 14.0094 2.36389 13.8071 2.276 13.616L1.54802 12.0307C1.489 11.9068 1.49003 11.769 1.53222 11.6416L2.24282 9.78769C2.31169 9.61583 2.34005 9.42837 2.34163 9.24292L2.31397 7.18157C2.31243 7.06469 2.36378 6.94901 2.44785 6.86918L3.62421 5.75678C3.78649 5.6017 3.91017 5.41535 3.98876 5.20755L4.66104 3.44972C4.71625 3.30269 4.8512 3.1973 5.01309 3.17477L6.23707 3.01233C6.45836 2.98119 6.66646 2.88479 6.8281 2.73493L7.85978 1.76386C8.02728 1.60942 8.28451 1.58801 8.47608 1.71234L9.39863 2.31904C9.61962 2.4629 9.89269 2.5283 10.1518 2.49121L11.0847 2.36723C11.3817 2.32419 11.6602 2.47511 11.7769 2.73345L11.7926 2.73538Z" fill="#8E3CC2" stroke="#21002A" stroke-width="0.069014" stroke-linejoin="round"/>
<path d="M10.5785 16.3064C10.858 14.0335 10.0346 11.7576 8.47605 10.8446C8.08512 10.6162 7.68134 10.4923 7.27644 10.4638L5.86843 10.3543C6.27269 10.3881 6.67711 10.5068 7.06804 10.7352C8.62655 11.6481 9.44995 13.924 9.17049 16.1969C9.10496 16.7298 8.76298 17.1386 8.3777 17.1231C8.29868 17.1187 8.21444 17.1136 8.13542 17.1092L9.54343 17.2187C9.62181 17.2283 9.70669 17.2282 9.78571 17.2326C10.1716 17.2429 10.513 16.8393 10.5785 16.3064Z" fill="black" stroke="black" stroke-width="0.0759154" stroke-linecap="round" stroke-linejoin="round"/>
<path d="M8.25334 4.89305L9.66136 5.00253C9.87687 5.01842 10.0964 5.08784 10.3095 5.20952C11.3137 5.79973 11.7492 7.43388 11.2865 8.86741C10.9192 9.99974 10.1011 10.6576 9.27563 10.5986L7.86761 10.4891C8.69244 10.5534 9.51122 9.89026 9.87852 8.75794C10.3406 7.32963 9.90564 5.69026 8.9015 5.10004C8.69361 4.97901 8.47408 4.90959 8.25857 4.8937L8.25334 4.89305Z" fill="black" stroke="black" stroke-width="0.0759154" stroke-linecap="round" stroke-linejoin="round"/>
<path d="M10.3458 16.3044C10.6252 14.0315 9.80183 11.7557 8.24333 10.8427C7.85239 10.6143 7.44861 10.4904 7.04372 10.4618L5.63571 10.3523C6.03996 10.3861 6.44438 10.5048 6.83532 10.7332C8.39382 11.6462 9.21722 13.9221 8.93776 16.1949C8.87159 16.7331 8.53025 17.1367 8.14497 17.1211C8.06595 17.1167 7.98171 17.1117 7.90269 17.1073L9.31071 17.2167C9.38908 17.2264 9.47396 17.2262 9.55298 17.2306C9.93826 17.2462 10.2802 16.8374 10.3458 16.3044Z" fill="#3ACE8B" stroke="#101841" stroke-width="0.0621126" stroke-miterlimit="10"/>
<path d="M8.9393 16.1949C8.87312 16.7331 8.53178 17.1367 8.1465 17.1211C7.10626 17.0834 6.06614 16.7858 5.062 16.1956C4.06244 15.6112 3.18841 14.7824 2.46162 13.7914C2.18924 13.4184 2.17952 12.8073 2.42809 12.3817C3.47897 10.5643 5.27834 9.82025 6.83685 10.7332C8.39535 11.6462 9.21876 13.9221 8.9393 16.1949Z" fill="#46F3A5" stroke="#101841" stroke-width="0.0621126" stroke-miterlimit="10"/>
<path d="M6.98237 10.2739C5.97823 9.6837 5.54268 8.04956 6.00471 6.62125C6.47197 5.19358 7.65963 4.50688 8.66378 5.0971C9.66792 5.68731 10.1035 7.32146 9.6408 8.75499C9.17876 10.1833 7.98652 10.8641 6.98173 10.2791L6.98237 10.2739Z" fill="#46F3A5" stroke="#101841" stroke-width="0.0621126" stroke-miterlimit="10"/>
<path d="M8.01567 4.8911L9.42368 5.00057C9.63919 5.01646 9.85873 5.08589 10.0718 5.20756C11.076 5.79778 11.5115 7.43192 11.0489 8.86546C10.6816 9.99779 9.86342 10.6557 9.03796 10.5966L7.62994 10.4871C8.45477 10.5514 9.27355 9.88831 9.64085 8.75599C10.1081 7.32832 9.66797 5.68831 8.66383 5.09809C8.45594 4.97706 8.23641 4.90763 8.01567 4.8911Z" fill="#3ACE8B" stroke="#101841" stroke-width="0.0621126" stroke-miterlimit="10"/>
</svg>
